<svg
  width="1276"
  height="498"
  viewBox="0 0 1276 498"
  fill="none"
  xmlns="http://www.w3.org/2000/svg"
>
  <line x1="400" y1="439" x2="600" y2="439" stroke="#252A2E" stroke-width="4" />
  <path
    d="M128.881 277.607C128.881 300.405 128.881 323.202 128.881 346"
    stroke="#252A2E"
    stroke-width="4"
    stroke-linecap="round"
    stroke-linejoin="round"
  />
  <ellipse cx="128.5" cy="266.781" rx="11.5" ry="10.7812" fill="#198C8C" />
  <path
    d="M125.007 256.179C123.28 256.509 120.543 257.886 119.837 259.097C119.426 259.802 118.832 260.333 118.418 261.042C117.718 262.243 117 264.203 117 265.612C117 268.206 117.907 271.936 119.9 273.888C120.779 274.749 121.792 276.383 123.083 276.744C124.661 277.186 126.019 277.563 127.779 277.563C130.546 277.563 134.451 277.173 136.289 274.922C138.361 272.385 139.977 270.289 139.977 266.863C139.977 263.922 140.405 261.965 137.566 259.22C137.118 258.869 139.412 260.992 136.289 258.047C135.661 257.721 134.443 257.34 133.946 257.097C131.958 256.123 131.394 256.52 130.175 256.179C128.77 255.786 126.693 256.163 125.226 256.163C124.482 256.163 121.845 256.953 121.539 257.553"
    stroke="#252A2E"
    stroke-width="3"
    stroke-linecap="round"
    stroke-linejoin="round"
  />
  <path
    d="M399.956 429.678C399.956 402.119 399.956 374.559 399.956 347"
    stroke="#252A2E"
    stroke-width="4"
    stroke-linecap="round"
    stroke-linejoin="round"
  />
  <circle r="11.5" transform="matrix(1 0 0 -1 399.5 440.898)" fill="#EF3413" />
  <path
    d="M396.057 451.214C394.319 450.875 391.565 449.461 390.854 448.217C390.441 447.493 389.844 446.948 389.427 446.219C388.722 444.985 388 442.972 388 441.525C388 438.861 388.913 435.03 390.918 433.025C391.802 432.141 392.822 430.463 394.121 430.092C395.709 429.638 397.075 429.251 398.847 429.251C401.631 429.251 405.56 429.651 407.41 431.963C409.495 434.569 411.12 436.722 411.12 440.24C411.12 443.261 411.552 445.271 408.694 448.09C408.244 448.451 410.552 446.271 407.41 449.295C406.778 449.63 405.552 450.021 405.052 450.271C403.052 451.271 402.484 450.863 401.257 451.214C399.844 451.618 397.754 451.23 396.278 451.23C395.529 451.23 392.875 450.418 392.567 449.803"
    stroke="#252A2E"
    stroke-width="3"
    stroke-linecap="round"
    stroke-linejoin="round"
  />
  <path
    d="M772 277C772 333.667 772 390.333 772 447"
    stroke="#252A2E"
    stroke-width="4"
    stroke-linecap="round"
    stroke-linejoin="round"
  />
  <path
    d="M1072 40C1072 173.333 1072 306.667 1072 440"
    stroke="#252A2E"
    stroke-width="4"
    stroke-linecap="round"
    stroke-linejoin="round"
  />
  <line
    x1="128.996"
    y1="347.075"
    x2="399.999"
    y2="347.075"
    stroke="#252A2E"
    stroke-width="4"
  />
  <line
    x1="772"
    y1="440"
    x2="1072"
    y2="440"
    stroke="#252A2E"
    stroke-width="4"
  />
  <circle
    r="11.5"
    transform="matrix(0 -1 -1 0 771.646 439.644)"
    fill="#EF3413"
  />
  <path
    d="M781.963 443.087C781.624 444.825 780.21 447.578 778.966 448.289C778.242 448.703 777.696 449.3 776.968 449.716C775.734 450.421 773.721 451.144 772.274 451.144C769.61 451.144 765.779 450.23 763.774 448.226C762.889 447.341 761.212 446.322 760.84 445.023C760.387 443.434 760 442.069 760 440.297C760 437.513 760.4 433.583 762.712 431.734C765.318 429.649 767.471 428.023 770.989 428.023C774.01 428.023 776.02 427.592 778.839 430.449C779.199 430.9 777.02 428.592 780.044 431.734C780.379 432.366 780.77 433.592 781.02 434.092C782.02 436.092 781.612 436.66 781.963 437.887C782.367 439.3 781.979 441.39 781.979 442.866C781.979 443.615 781.167 446.269 780.552 446.577"
    stroke="#252A2E"
    stroke-width="3"
    stroke-linecap="round"
    stroke-linejoin="round"
  />
  <path
    d="M772 276.144C715.333 276.144 658.667 276.144 602 276.144"
    stroke="#252A2E"
    stroke-width="4"
    stroke-linecap="round"
    stroke-linejoin="round"
  />
  <path
    d="M600 290C600 340 600 390 600 440"
    stroke="#252A2E"
    stroke-width="4"
    stroke-linecap="round"
    stroke-linejoin="round"
  />
  <circle cx="599.5" cy="278.5" r="11.5" fill="#FBDB3E" />
  <path
    d="M596.057 268.184C594.319 268.523 591.565 269.937 590.854 271.181C590.441 271.905 589.844 272.45 589.427 273.179C588.722 274.412 588 276.425 588 277.873C588 280.537 588.913 284.368 590.918 286.372C591.802 287.257 592.822 288.935 594.121 289.306C595.709 289.76 597.075 290.146 598.847 290.146C601.631 290.146 605.56 289.747 607.41 287.435C609.495 284.829 611.12 282.676 611.12 279.157C611.12 276.136 611.552 274.127 608.694 271.308C608.244 270.947 610.552 273.127 607.41 270.102C606.778 269.768 605.552 269.377 605.052 269.127C603.052 268.127 602.484 268.534 601.257 268.184C599.844 267.78 597.754 268.168 596.278 268.168C595.529 268.168 592.875 268.979 592.567 269.595"
    stroke="#252A2E"
    stroke-width="3"
    stroke-linecap="round"
    stroke-linejoin="round"
  />
  <path
    d="M1271.4 115L1071.75 18.5938L1071.75 211.406L1271.4 115Z"
    fill="#35ABAE"
    fill-opacity="0.8"
    stroke="#252A2E"
    stroke-width="4"
  />
  <path
    d="M484.684 222.727H488.773L482.996 233.508V240H479.387V233.508L473.41 222.727H477.664L481.25 230.25L484.684 222.727ZM494.516 237.645C495.492 237.645 496.242 237.297 496.766 236.602C497.289 235.906 497.551 234.918 497.551 233.637C497.551 232.355 497.289 231.371 496.766 230.684C496.242 229.988 495.492 229.641 494.516 229.641C493.539 229.641 492.785 229.988 492.254 230.684C491.73 231.371 491.469 232.355 491.469 233.637C491.469 234.918 491.73 235.906 492.254 236.602C492.785 237.297 493.539 237.645 494.516 237.645ZM501.055 233.637C501.055 235.512 500.516 237.117 499.438 238.453C498.359 239.781 496.723 240.445 494.527 240.445C492.332 240.445 490.695 239.781 489.617 238.453C488.539 237.117 488 235.512 488 233.637C488 231.793 488.539 230.195 489.617 228.844C490.695 227.492 492.332 226.816 494.527 226.816C496.723 226.816 498.359 227.492 499.438 228.844C500.516 230.195 501.055 231.793 501.055 233.637ZM506.785 227.227V234.926C506.785 235.652 506.871 236.199 507.043 236.566C507.348 237.215 507.945 237.539 508.836 237.539C509.977 237.539 510.758 237.078 511.18 236.156C511.398 235.656 511.508 234.996 511.508 234.176V227.227H514.895V240H511.648V238.195C511.617 238.234 511.539 238.352 511.414 238.547C511.289 238.742 511.141 238.914 510.969 239.062C510.445 239.531 509.938 239.852 509.445 240.023C508.961 240.195 508.391 240.281 507.734 240.281C505.844 240.281 504.57 239.602 503.914 238.242C503.547 237.492 503.363 236.387 503.363 234.926V227.227H506.785ZM525.066 226.922C525.129 226.922 525.18 226.926 525.219 226.934C525.266 226.934 525.363 226.938 525.512 226.945V230.367C525.301 230.344 525.113 230.328 524.949 230.32C524.785 230.312 524.652 230.309 524.551 230.309C523.207 230.309 522.305 230.746 521.844 231.621C521.586 232.113 521.457 232.871 521.457 233.895V240H518.094V227.227H521.281V229.453C521.797 228.602 522.246 228.02 522.629 227.707C523.254 227.184 524.066 226.922 525.066 226.922ZM542.961 233.613C542.961 232.629 542.734 231.758 542.281 231C541.836 230.242 541.109 229.863 540.102 229.863C538.891 229.863 538.059 230.438 537.605 231.586C537.371 232.195 537.254 232.969 537.254 233.906C537.254 235.391 537.648 236.434 538.438 237.035C538.906 237.387 539.461 237.562 540.102 237.562C541.031 237.562 541.738 237.203 542.223 236.484C542.715 235.766 542.961 234.809 542.961 233.613ZM541.062 226.945C542.555 226.945 543.816 227.496 544.848 228.598C545.887 229.699 546.406 231.316 546.406 233.449C546.406 235.699 545.898 237.414 544.883 238.594C543.875 239.773 542.574 240.363 540.98 240.363C539.965 240.363 539.121 240.109 538.449 239.602C538.082 239.32 537.723 238.91 537.371 238.371V245.027H534.066V227.227H537.266V229.113C537.625 228.559 538.008 228.121 538.414 227.801C539.156 227.23 540.039 226.945 541.062 226.945ZM555.875 233.789C555.664 233.922 555.449 234.031 555.23 234.117C555.02 234.195 554.727 234.27 554.352 234.34L553.602 234.48C552.898 234.605 552.395 234.758 552.09 234.938C551.574 235.242 551.316 235.715 551.316 236.355C551.316 236.926 551.473 237.34 551.785 237.598C552.105 237.848 552.492 237.973 552.945 237.973C553.664 237.973 554.324 237.762 554.926 237.34C555.535 236.918 555.852 236.148 555.875 235.031V233.789ZM553.848 232.23C554.465 232.152 554.906 232.055 555.172 231.938C555.648 231.734 555.887 231.418 555.887 230.988C555.887 230.465 555.703 230.105 555.336 229.91C554.977 229.707 554.445 229.605 553.742 229.605C552.953 229.605 552.395 229.801 552.066 230.191C551.832 230.48 551.676 230.871 551.598 231.363H548.375C548.445 230.246 548.758 229.328 549.312 228.609C550.195 227.484 551.711 226.922 553.859 226.922C555.258 226.922 556.5 227.199 557.586 227.754C558.672 228.309 559.215 229.355 559.215 230.895V236.754C559.215 237.16 559.223 237.652 559.238 238.23C559.262 238.668 559.328 238.965 559.438 239.121C559.547 239.277 559.711 239.406 559.93 239.508V240H556.297C556.195 239.742 556.125 239.5 556.086 239.273C556.047 239.047 556.016 238.789 555.992 238.5C555.531 239 555 239.426 554.398 239.777C553.68 240.191 552.867 240.398 551.961 240.398C550.805 240.398 549.848 240.07 549.09 239.414C548.34 238.75 547.965 237.812 547.965 236.602C547.965 235.031 548.57 233.895 549.781 233.191C550.445 232.809 551.422 232.535 552.711 232.371L553.848 232.23ZM569.82 231.809C569.758 231.332 569.598 230.902 569.34 230.52C568.965 230.004 568.383 229.746 567.594 229.746C566.469 229.746 565.699 230.305 565.285 231.422C565.066 232.016 564.957 232.805 564.957 233.789C564.957 234.727 565.066 235.48 565.285 236.051C565.684 237.113 566.434 237.645 567.535 237.645C568.316 237.645 568.871 237.434 569.199 237.012C569.527 236.59 569.727 236.043 569.797 235.371H573.207C573.129 236.387 572.762 237.348 572.105 238.254C571.059 239.715 569.508 240.445 567.453 240.445C565.398 240.445 563.887 239.836 562.918 238.617C561.949 237.398 561.465 235.816 561.465 233.871C561.465 231.676 562 229.969 563.07 228.75C564.141 227.531 565.617 226.922 567.5 226.922C569.102 226.922 570.41 227.281 571.426 228C572.449 228.719 573.055 229.988 573.242 231.809H569.82ZM580.59 229.641C579.816 229.641 579.215 229.883 578.785 230.367C578.363 230.852 578.098 231.508 577.988 232.336H583.18C583.125 231.453 582.855 230.785 582.371 230.332C581.895 229.871 581.301 229.641 580.59 229.641ZM580.59 226.887C581.652 226.887 582.609 227.086 583.461 227.484C584.312 227.883 585.016 228.512 585.57 229.371C586.07 230.129 586.395 231.008 586.543 232.008C586.629 232.594 586.664 233.438 586.648 234.539H577.906C577.953 235.82 578.355 236.719 579.113 237.234C579.574 237.555 580.129 237.715 580.777 237.715C581.465 237.715 582.023 237.52 582.453 237.129C582.688 236.918 582.895 236.625 583.074 236.25H586.484C586.398 237.008 586.004 237.777 585.301 238.559C584.207 239.801 582.676 240.422 580.707 240.422C579.082 240.422 577.648 239.898 576.406 238.852C575.164 237.805 574.543 236.102 574.543 233.742C574.543 231.531 575.102 229.836 576.219 228.656C577.344 227.477 578.801 226.887 580.59 226.887ZM588.734 242.777C589.406 242.59 589.898 242.277 590.211 241.84C590.531 241.402 590.715 240.789 590.762 240H588.734V236.508H592.344V239.531C592.344 240.062 592.273 240.617 592.133 241.195C591.992 241.773 591.73 242.273 591.348 242.695C590.934 243.148 590.445 243.488 589.883 243.715C589.328 243.949 588.945 244.066 588.734 244.066V242.777ZM602.785 242.449L603.207 242.473C603.535 242.488 603.848 242.477 604.145 242.438C604.441 242.398 604.691 242.309 604.895 242.168C605.09 242.035 605.27 241.758 605.434 241.336C605.605 240.914 605.676 240.656 605.645 240.562L600.957 227.227H604.672L607.461 236.648L610.098 227.227H613.648L609.266 239.789C608.422 242.211 607.754 243.711 607.262 244.289C606.77 244.875 605.785 245.168 604.309 245.168C604.012 245.168 603.773 245.164 603.594 245.156C603.414 245.156 603.145 245.145 602.785 245.121V242.449ZM621.359 237.645C622.336 237.645 623.086 237.297 623.609 236.602C624.133 235.906 624.395 234.918 624.395 233.637C624.395 232.355 624.133 231.371 623.609 230.684C623.086 229.988 622.336 229.641 621.359 229.641C620.383 229.641 619.629 229.988 619.098 230.684C618.574 231.371 618.312 232.355 618.312 233.637C618.312 234.918 618.574 235.906 619.098 236.602C619.629 237.297 620.383 237.645 621.359 237.645ZM627.898 233.637C627.898 235.512 627.359 237.117 626.281 238.453C625.203 239.781 623.566 240.445 621.371 240.445C619.176 240.445 617.539 239.781 616.461 238.453C615.383 237.117 614.844 235.512 614.844 233.637C614.844 231.793 615.383 230.195 616.461 228.844C617.539 227.492 619.176 226.816 621.371 226.816C623.566 226.816 625.203 227.492 626.281 228.844C627.359 230.195 627.898 231.793 627.898 233.637ZM633.629 227.227V234.926C633.629 235.652 633.715 236.199 633.887 236.566C634.191 237.215 634.789 237.539 635.68 237.539C636.82 237.539 637.602 237.078 638.023 236.156C638.242 235.656 638.352 234.996 638.352 234.176V227.227H641.738V240H638.492V238.195C638.461 238.234 638.383 238.352 638.258 238.547C638.133 238.742 637.984 238.914 637.812 239.062C637.289 239.531 636.781 239.852 636.289 240.023C635.805 240.195 635.234 240.281 634.578 240.281C632.688 240.281 631.414 239.602 630.758 238.242C630.391 237.492 630.207 236.387 630.207 234.926V227.227H633.629ZM651.91 226.922C651.973 226.922 652.023 226.926 652.062 226.934C652.109 226.934 652.207 226.938 652.355 226.945V230.367C652.145 230.344 651.957 230.328 651.793 230.32C651.629 230.312 651.496 230.309 651.395 230.309C650.051 230.309 649.148 230.746 648.688 231.621C648.43 232.113 648.301 232.871 648.301 233.895V240H644.938V227.227H648.125V229.453C648.641 228.602 649.09 228.02 649.473 227.707C650.098 227.184 650.91 226.922 651.91 226.922ZM665.715 222.551C665.926 222.551 666.117 222.559 666.289 222.574C666.461 222.582 666.695 222.598 666.992 222.621V225.34C666.805 225.316 666.488 225.301 666.043 225.293C665.605 225.277 665.301 225.375 665.129 225.586C664.965 225.789 664.883 226.016 664.883 226.266C664.883 226.516 664.883 226.875 664.883 227.344H667.074V229.699H664.883V240H661.555V229.699H659.691V227.344H661.52V226.523C661.52 225.156 661.75 224.215 662.211 223.699C662.695 222.934 663.863 222.551 665.715 222.551ZM675.934 226.922C675.996 226.922 676.047 226.926 676.086 226.934C676.133 226.934 676.23 226.938 676.379 226.945V230.367C676.168 230.344 675.98 230.328 675.816 230.32C675.652 230.312 675.52 230.309 675.418 230.309C674.074 230.309 673.172 230.746 672.711 231.621C672.453 232.113 672.324 232.871 672.324 233.895V240H668.961V227.227H672.148V229.453C672.664 228.602 673.113 228.02 673.496 227.707C674.121 227.184 674.934 226.922 675.934 226.922ZM683.387 229.641C682.613 229.641 682.012 229.883 681.582 230.367C681.16 230.852 680.895 231.508 680.785 232.336H685.977C685.922 231.453 685.652 230.785 685.168 230.332C684.691 229.871 684.098 229.641 683.387 229.641ZM683.387 226.887C684.449 226.887 685.406 227.086 686.258 227.484C687.109 227.883 687.812 228.512 688.367 229.371C688.867 230.129 689.191 231.008 689.34 232.008C689.426 232.594 689.461 233.438 689.445 234.539H680.703C680.75 235.82 681.152 236.719 681.91 237.234C682.371 237.555 682.926 237.715 683.574 237.715C684.262 237.715 684.82 237.52 685.25 237.129C685.484 236.918 685.691 236.625 685.871 236.25H689.281C689.195 237.008 688.801 237.777 688.098 238.559C687.004 239.801 685.473 240.422 683.504 240.422C681.879 240.422 680.445 239.898 679.203 238.852C677.961 237.805 677.34 236.102 677.34 233.742C677.34 231.531 677.898 229.836 679.016 228.656C680.141 227.477 681.598 226.887 683.387 226.887ZM696.746 229.641C695.973 229.641 695.371 229.883 694.941 230.367C694.52 230.852 694.254 231.508 694.145 232.336H699.336C699.281 231.453 699.012 230.785 698.527 230.332C698.051 229.871 697.457 229.641 696.746 229.641ZM696.746 226.887C697.809 226.887 698.766 227.086 699.617 227.484C700.469 227.883 701.172 228.512 701.727 229.371C702.227 230.129 702.551 231.008 702.699 232.008C702.785 232.594 702.82 233.438 702.805 234.539H694.062C694.109 235.82 694.512 236.719 695.27 237.234C695.73 237.555 696.285 237.715 696.934 237.715C697.621 237.715 698.18 237.52 698.609 237.129C698.844 236.918 699.051 236.625 699.23 236.25H702.641C702.555 237.008 702.16 237.777 701.457 238.559C700.363 239.801 698.832 240.422 696.863 240.422C695.238 240.422 693.805 239.898 692.562 238.852C691.32 237.805 690.699 236.102 690.699 233.742C690.699 231.531 691.258 229.836 692.375 228.656C693.5 227.477 694.957 226.887 696.746 226.887ZM709.777 226.922C710.551 226.922 711.238 227.094 711.84 227.438C712.441 227.773 712.93 228.242 713.305 228.844V222.75H716.691V240H713.445V238.23C712.969 238.988 712.426 239.539 711.816 239.883C711.207 240.227 710.449 240.398 709.543 240.398C708.051 240.398 706.793 239.797 705.77 238.594C704.754 237.383 704.246 235.832 704.246 233.941C704.246 231.762 704.746 230.047 705.746 228.797C706.754 227.547 708.098 226.922 709.777 226.922ZM710.504 237.586C711.449 237.586 712.168 237.234 712.66 236.531C713.152 235.828 713.398 234.918 713.398 233.801C713.398 232.238 713.004 231.121 712.215 230.449C711.73 230.043 711.168 229.84 710.527 229.84C709.551 229.84 708.832 230.211 708.371 230.953C707.918 231.688 707.691 232.602 707.691 233.695C707.691 234.875 707.922 235.82 708.383 236.531C708.852 237.234 709.559 237.586 710.504 237.586ZM725.469 237.645C726.445 237.645 727.195 237.297 727.719 236.602C728.242 235.906 728.504 234.918 728.504 233.637C728.504 232.355 728.242 231.371 727.719 230.684C727.195 229.988 726.445 229.641 725.469 229.641C724.492 229.641 723.738 229.988 723.207 230.684C722.684 231.371 722.422 232.355 722.422 233.637C722.422 234.918 722.684 235.906 723.207 236.602C723.738 237.297 724.492 237.645 725.469 237.645ZM732.008 233.637C732.008 235.512 731.469 237.117 730.391 238.453C729.312 239.781 727.676 240.445 725.48 240.445C723.285 240.445 721.648 239.781 720.57 238.453C719.492 237.117 718.953 235.512 718.953 233.637C718.953 231.793 719.492 230.195 720.57 228.844C721.648 227.492 723.285 226.816 725.48 226.816C727.676 226.816 729.312 227.492 730.391 228.844C731.469 230.195 732.008 231.793 732.008 233.637ZM748.684 226.945C749.246 226.945 749.801 227.055 750.348 227.273C750.895 227.492 751.391 227.875 751.836 228.422C752.195 228.867 752.438 229.414 752.562 230.062C752.641 230.492 752.68 231.121 752.68 231.949L752.656 240H749.234V231.867C749.234 231.383 749.156 230.984 749 230.672C748.703 230.078 748.156 229.781 747.359 229.781C746.438 229.781 745.801 230.164 745.449 230.93C745.27 231.336 745.18 231.824 745.18 232.395V240H741.816V232.395C741.816 231.637 741.738 231.086 741.582 230.742C741.301 230.125 740.75 229.816 739.93 229.816C738.977 229.816 738.336 230.125 738.008 230.742C737.828 231.094 737.738 231.617 737.738 232.312V240H734.352V227.25H737.598V229.113C738.012 228.449 738.402 227.977 738.77 227.695C739.418 227.195 740.258 226.945 741.289 226.945C742.266 226.945 743.055 227.16 743.656 227.59C744.141 227.988 744.508 228.5 744.758 229.125C745.195 228.375 745.738 227.824 746.387 227.473C747.074 227.121 747.84 226.945 748.684 226.945Z"
    fill="black"
  />
  <path
    d="M5.33203 225.727V229.535H9.57422C10.332 229.535 10.9453 229.395 11.4141 229.113C11.8906 228.824 12.1289 228.316 12.1289 227.59C12.1289 226.785 11.8164 226.254 11.1914 225.996C10.6523 225.816 9.96484 225.727 9.12891 225.727H5.33203ZM5.33203 232.395V237H9.57422C10.332 237 10.9219 236.898 11.3438 236.695C12.1094 236.32 12.4922 235.602 12.4922 234.539C12.4922 233.641 12.1211 233.023 11.3789 232.688C10.9648 232.5 10.3828 232.402 9.63281 232.395H5.33203ZM10.2773 222.727C12.3945 222.758 13.8945 223.371 14.7773 224.566C15.3086 225.301 15.5742 226.18 15.5742 227.203C15.5742 228.258 15.3086 229.105 14.7773 229.746C14.4805 230.105 14.043 230.434 13.4648 230.73C14.3477 231.051 15.0117 231.559 15.457 232.254C15.9102 232.949 16.1367 233.793 16.1367 234.785C16.1367 235.809 15.8789 236.727 15.3633 237.539C15.0352 238.078 14.625 238.531 14.1328 238.898C13.5781 239.32 12.9219 239.609 12.1641 239.766C11.4141 239.922 10.5977 240 9.71484 240H1.88672V222.727H10.2773ZM25.8398 226.922C25.9023 226.922 25.9531 226.926 25.9922 226.934C26.0391 226.934 26.1367 226.938 26.2852 226.945V230.367C26.0742 230.344 25.8867 230.328 25.7227 230.32C25.5586 230.312 25.4258 230.309 25.3242 230.309C23.9805 230.309 23.0781 230.746 22.6172 231.621C22.3594 232.113 22.2305 232.871 22.2305 233.895V240H18.8672V227.227H22.0547V229.453C22.5703 228.602 23.0195 228.02 23.4023 227.707C24.0273 227.184 24.8398 226.922 25.8398 226.922ZM33.293 229.641C32.5195 229.641 31.918 229.883 31.4883 230.367C31.0664 230.852 30.8008 231.508 30.6914 232.336H35.8828C35.8281 231.453 35.5586 230.785 35.0742 230.332C34.5977 229.871 34.0039 229.641 33.293 229.641ZM33.293 226.887C34.3555 226.887 35.3125 227.086 36.1641 227.484C37.0156 227.883 37.7188 228.512 38.2734 229.371C38.7734 230.129 39.0977 231.008 39.2461 232.008C39.332 232.594 39.3672 233.438 39.3516 234.539H30.6094C30.6562 235.82 31.0586 236.719 31.8164 237.234C32.2773 237.555 32.832 237.715 33.4805 237.715C34.168 237.715 34.7266 237.52 35.1562 237.129C35.3906 236.918 35.5977 236.625 35.7773 236.25H39.1875C39.1016 237.008 38.707 237.777 38.0039 238.559C36.9102 239.801 35.3789 240.422 33.4102 240.422C31.7852 240.422 30.3516 239.898 29.1094 238.852C27.8672 237.805 27.2461 236.102 27.2461 233.742C27.2461 231.531 27.8047 229.836 28.9219 228.656C30.0469 227.477 31.5039 226.887 33.293 226.887ZM48.6562 233.789C48.4453 233.922 48.2305 234.031 48.0117 234.117C47.8008 234.195 47.5078 234.27 47.1328 234.34L46.3828 234.48C45.6797 234.605 45.1758 234.758 44.8711 234.938C44.3555 235.242 44.0977 235.715 44.0977 236.355C44.0977 236.926 44.2539 237.34 44.5664 237.598C44.8867 237.848 45.2734 237.973 45.7266 237.973C46.4453 237.973 47.1055 237.762 47.707 237.34C48.3164 236.918 48.6328 236.148 48.6562 235.031V233.789ZM46.6289 232.23C47.2461 232.152 47.6875 232.055 47.9531 231.938C48.4297 231.734 48.668 231.418 48.668 230.988C48.668 230.465 48.4844 230.105 48.1172 229.91C47.7578 229.707 47.2266 229.605 46.5234 229.605C45.7344 229.605 45.1758 229.801 44.8477 230.191C44.6133 230.48 44.457 230.871 44.3789 231.363H41.1562C41.2266 230.246 41.5391 229.328 42.0938 228.609C42.9766 227.484 44.4922 226.922 46.6406 226.922C48.0391 226.922 49.2812 227.199 50.3672 227.754C51.4531 228.309 51.9961 229.355 51.9961 230.895V236.754C51.9961 237.16 52.0039 237.652 52.0195 238.23C52.043 238.668 52.1094 238.965 52.2188 239.121C52.3281 239.277 52.4922 239.406 52.7109 239.508V240H49.0781C48.9766 239.742 48.9062 239.5 48.8672 239.273C48.8281 239.047 48.7969 238.789 48.7734 238.5C48.3125 239 47.7812 239.426 47.1797 239.777C46.4609 240.191 45.6484 240.398 44.7422 240.398C43.5859 240.398 42.6289 240.07 41.8711 239.414C41.1211 238.75 40.7461 237.812 40.7461 236.602C40.7461 235.031 41.3516 233.895 42.5625 233.191C43.2266 232.809 44.2031 232.535 45.4922 232.371L46.6289 232.23ZM54.9375 222.785H58.2188V232.09L62.3789 227.285H66.5156L62.0508 232.172L66.6914 240H62.6602L59.6016 234.539L58.2188 235.98V240H54.9375V222.785ZM73.6992 229.723V227.344H75.4805V223.781H78.7852V227.344H80.8594V229.723H78.7852V236.473C78.7852 236.996 78.8516 237.324 78.9844 237.457C79.1172 237.582 79.5234 237.645 80.2031 237.645C80.3047 237.645 80.4102 237.645 80.5195 237.645C80.6367 237.637 80.75 237.629 80.8594 237.621V240.117L79.2773 240.176C77.6992 240.23 76.6211 239.957 76.043 239.355C75.668 238.973 75.4805 238.383 75.4805 237.586V229.723H73.6992ZM90.0469 226.898C90.8359 226.898 91.5508 227.035 92.1914 227.309C92.8398 227.582 93.3711 228 93.7852 228.562C94.1367 229.039 94.3516 229.531 94.4297 230.039C94.5078 230.539 94.5469 231.359 94.5469 232.5V240H91.1367V232.23C91.1367 231.543 91.0195 230.988 90.7852 230.566C90.4805 229.973 89.9023 229.676 89.0508 229.676C88.168 229.676 87.4961 229.973 87.0352 230.566C86.582 231.152 86.3555 231.992 86.3555 233.086V240H83.0273V222.785H86.3555V228.891C86.8398 228.148 87.3984 227.633 88.0312 227.344C88.6719 227.047 89.3438 226.898 90.0469 226.898ZM102.715 229.641C101.941 229.641 101.34 229.883 100.91 230.367C100.488 230.852 100.223 231.508 100.113 232.336H105.305C105.25 231.453 104.98 230.785 104.496 230.332C104.02 229.871 103.426 229.641 102.715 229.641ZM102.715 226.887C103.777 226.887 104.734 227.086 105.586 227.484C106.438 227.883 107.141 228.512 107.695 229.371C108.195 230.129 108.52 231.008 108.668 232.008C108.754 232.594 108.789 233.438 108.773 234.539H100.031C100.078 235.82 100.48 236.719 101.238 237.234C101.699 237.555 102.254 237.715 102.902 237.715C103.59 237.715 104.148 237.52 104.578 237.129C104.812 236.918 105.02 236.625 105.199 236.25H108.609C108.523 237.008 108.129 237.777 107.426 238.559C106.332 239.801 104.801 240.422 102.832 240.422C101.207 240.422 99.7734 239.898 98.5312 238.852C97.2891 237.805 96.668 236.102 96.668 233.742C96.668 231.531 97.2266 229.836 98.3438 228.656C99.4688 227.477 100.926 226.887 102.715 226.887ZM131.988 226.945C132.551 226.945 133.105 227.055 133.652 227.273C134.199 227.492 134.695 227.875 135.141 228.422C135.5 228.867 135.742 229.414 135.867 230.062C135.945 230.492 135.984 231.121 135.984 231.949L135.961 240H132.539V231.867C132.539 231.383 132.461 230.984 132.305 230.672C132.008 230.078 131.461 229.781 130.664 229.781C129.742 229.781 129.105 230.164 128.754 230.93C128.574 231.336 128.484 231.824 128.484 232.395V240H125.121V232.395C125.121 231.637 125.043 231.086 124.887 230.742C124.605 230.125 124.055 229.816 123.234 229.816C122.281 229.816 121.641 230.125 121.312 230.742C121.133 231.094 121.043 231.617 121.043 232.312V240H117.656V227.25H120.902V229.113C121.316 228.449 121.707 227.977 122.074 227.695C122.723 227.195 123.562 226.945 124.594 226.945C125.57 226.945 126.359 227.16 126.961 227.59C127.445 227.988 127.812 228.5 128.062 229.125C128.5 228.375 129.043 227.824 129.691 227.473C130.379 227.121 131.145 226.945 131.988 226.945ZM144.797 237.645C145.773 237.645 146.523 237.297 147.047 236.602C147.57 235.906 147.832 234.918 147.832 233.637C147.832 232.355 147.57 231.371 147.047 230.684C146.523 229.988 145.773 229.641 144.797 229.641C143.82 229.641 143.066 229.988 142.535 230.684C142.012 231.371 141.75 232.355 141.75 233.637C141.75 234.918 142.012 235.906 142.535 236.602C143.066 237.297 143.82 237.645 144.797 237.645ZM151.336 233.637C151.336 235.512 150.797 237.117 149.719 238.453C148.641 239.781 147.004 240.445 144.809 240.445C142.613 240.445 140.977 239.781 139.898 238.453C138.82 237.117 138.281 235.512 138.281 233.637C138.281 231.793 138.82 230.195 139.898 228.844C140.977 227.492 142.613 226.816 144.809 226.816C147.004 226.816 148.641 227.492 149.719 228.844C150.797 230.195 151.336 231.793 151.336 233.637ZM160.816 226.922C162.137 226.922 163.215 227.27 164.051 227.965C164.895 228.652 165.316 229.797 165.316 231.398V240H161.895V232.23C161.895 231.559 161.805 231.043 161.625 230.684C161.297 230.027 160.672 229.699 159.75 229.699C158.617 229.699 157.84 230.18 157.418 231.141C157.199 231.648 157.09 232.297 157.09 233.086V240H153.762V227.25H156.984V229.113C157.414 228.457 157.82 227.984 158.203 227.695C158.891 227.18 159.762 226.922 160.816 226.922ZM174.141 237.645C175.117 237.645 175.867 237.297 176.391 236.602C176.914 235.906 177.176 234.918 177.176 233.637C177.176 232.355 176.914 231.371 176.391 230.684C175.867 229.988 175.117 229.641 174.141 229.641C173.164 229.641 172.41 229.988 171.879 230.684C171.355 231.371 171.094 232.355 171.094 233.637C171.094 234.918 171.355 235.906 171.879 236.602C172.41 237.297 173.164 237.645 174.141 237.645ZM180.68 233.637C180.68 235.512 180.141 237.117 179.062 238.453C177.984 239.781 176.348 240.445 174.152 240.445C171.957 240.445 170.32 239.781 169.242 238.453C168.164 237.117 167.625 235.512 167.625 233.637C167.625 231.793 168.164 230.195 169.242 228.844C170.32 227.492 171.957 226.816 174.152 226.816C176.348 226.816 177.984 227.492 179.062 228.844C180.141 230.195 180.68 231.793 180.68 233.637ZM181.77 229.723V227.344H183.551V223.781H186.855V227.344H188.93V229.723H186.855V236.473C186.855 236.996 186.922 237.324 187.055 237.457C187.188 237.582 187.594 237.645 188.273 237.645C188.375 237.645 188.48 237.645 188.59 237.645C188.707 237.637 188.82 237.629 188.93 237.621V240.117L187.348 240.176C185.77 240.23 184.691 239.957 184.113 239.355C183.738 238.973 183.551 238.383 183.551 237.586V229.723H181.77ZM196.805 237.645C197.781 237.645 198.531 237.297 199.055 236.602C199.578 235.906 199.84 234.918 199.84 233.637C199.84 232.355 199.578 231.371 199.055 230.684C198.531 229.988 197.781 229.641 196.805 229.641C195.828 229.641 195.074 229.988 194.543 230.684C194.02 231.371 193.758 232.355 193.758 233.637C193.758 234.918 194.02 235.906 194.543 236.602C195.074 237.297 195.828 237.645 196.805 237.645ZM203.344 233.637C203.344 235.512 202.805 237.117 201.727 238.453C200.648 239.781 199.012 240.445 196.816 240.445C194.621 240.445 192.984 239.781 191.906 238.453C190.828 237.117 190.289 235.512 190.289 233.637C190.289 231.793 190.828 230.195 191.906 228.844C192.984 227.492 194.621 226.816 196.816 226.816C199.012 226.816 200.648 227.492 201.727 228.844C202.805 230.195 203.344 231.793 203.344 233.637ZM212.824 226.922C214.145 226.922 215.223 227.27 216.059 227.965C216.902 228.652 217.324 229.797 217.324 231.398V240H213.902V232.23C213.902 231.559 213.812 231.043 213.633 230.684C213.305 230.027 212.68 229.699 211.758 229.699C210.625 229.699 209.848 230.18 209.426 231.141C209.207 231.648 209.098 232.297 209.098 233.086V240H205.77V227.25H208.992V229.113C209.422 228.457 209.828 227.984 210.211 227.695C210.898 227.18 211.77 226.922 212.824 226.922ZM220.934 242.449L221.355 242.473C221.684 242.488 221.996 242.477 222.293 242.438C222.59 242.398 222.84 242.309 223.043 242.168C223.238 242.035 223.418 241.758 223.582 241.336C223.754 240.914 223.824 240.656 223.793 240.562L219.105 227.227H222.82L225.609 236.648L228.246 227.227H231.797L227.414 239.789C226.57 242.211 225.902 243.711 225.41 244.289C224.918 244.875 223.934 245.168 222.457 245.168C222.16 245.168 221.922 245.164 221.742 245.156C221.562 245.156 221.293 245.145 220.934 245.121V242.449Z"
    fill="#252A2E"
  />
  <path
    d="M302.332 477.727V481.535H306.574C307.332 481.535 307.945 481.395 308.414 481.113C308.891 480.824 309.129 480.316 309.129 479.59C309.129 478.785 308.816 478.254 308.191 477.996C307.652 477.816 306.965 477.727 306.129 477.727H302.332ZM302.332 484.395V489H306.574C307.332 489 307.922 488.898 308.344 488.695C309.109 488.32 309.492 487.602 309.492 486.539C309.492 485.641 309.121 485.023 308.379 484.688C307.965 484.5 307.383 484.402 306.633 484.395H302.332ZM307.277 474.727C309.395 474.758 310.895 475.371 311.777 476.566C312.309 477.301 312.574 478.18 312.574 479.203C312.574 480.258 312.309 481.105 311.777 481.746C311.48 482.105 311.043 482.434 310.465 482.73C311.348 483.051 312.012 483.559 312.457 484.254C312.91 484.949 313.137 485.793 313.137 486.785C313.137 487.809 312.879 488.727 312.363 489.539C312.035 490.078 311.625 490.531 311.133 490.898C310.578 491.32 309.922 491.609 309.164 491.766C308.414 491.922 307.598 492 306.715 492H298.887V474.727H307.277ZM319.23 479.227V486.926C319.23 487.652 319.316 488.199 319.488 488.566C319.793 489.215 320.391 489.539 321.281 489.539C322.422 489.539 323.203 489.078 323.625 488.156C323.844 487.656 323.953 486.996 323.953 486.176V479.227H327.34V492H324.094V490.195C324.062 490.234 323.984 490.352 323.859 490.547C323.734 490.742 323.586 490.914 323.414 491.062C322.891 491.531 322.383 491.852 321.891 492.023C321.406 492.195 320.836 492.281 320.18 492.281C318.289 492.281 317.016 491.602 316.359 490.242C315.992 489.492 315.809 488.387 315.809 486.926V479.227H319.23ZM334.008 477.703H330.621V474.621H334.008V477.703ZM330.621 479.227H334.008V492H330.621V479.227ZM340.664 492H337.324V474.727H340.664V492ZM348.645 478.922C349.418 478.922 350.105 479.094 350.707 479.438C351.309 479.773 351.797 480.242 352.172 480.844V474.75H355.559V492H352.312V490.23C351.836 490.988 351.293 491.539 350.684 491.883C350.074 492.227 349.316 492.398 348.41 492.398C346.918 492.398 345.66 491.797 344.637 490.594C343.621 489.383 343.113 487.832 343.113 485.941C343.113 483.762 343.613 482.047 344.613 480.797C345.621 479.547 346.965 478.922 348.645 478.922ZM349.371 489.586C350.316 489.586 351.035 489.234 351.527 488.531C352.02 487.828 352.266 486.918 352.266 485.801C352.266 484.238 351.871 483.121 351.082 482.449C350.598 482.043 350.035 481.84 349.395 481.84C348.418 481.84 347.699 482.211 347.238 482.953C346.785 483.688 346.559 484.602 346.559 485.695C346.559 486.875 346.789 487.82 347.25 488.531C347.719 489.234 348.426 489.586 349.371 489.586ZM372.328 485.789C372.117 485.922 371.902 486.031 371.684 486.117C371.473 486.195 371.18 486.27 370.805 486.34L370.055 486.48C369.352 486.605 368.848 486.758 368.543 486.938C368.027 487.242 367.77 487.715 367.77 488.355C367.77 488.926 367.926 489.34 368.238 489.598C368.559 489.848 368.945 489.973 369.398 489.973C370.117 489.973 370.777 489.762 371.379 489.34C371.988 488.918 372.305 488.148 372.328 487.031V485.789ZM370.301 484.23C370.918 484.152 371.359 484.055 371.625 483.938C372.102 483.734 372.34 483.418 372.34 482.988C372.34 482.465 372.156 482.105 371.789 481.91C371.43 481.707 370.898 481.605 370.195 481.605C369.406 481.605 368.848 481.801 368.52 482.191C368.285 482.48 368.129 482.871 368.051 483.363H364.828C364.898 482.246 365.211 481.328 365.766 480.609C366.648 479.484 368.164 478.922 370.312 478.922C371.711 478.922 372.953 479.199 374.039 479.754C375.125 480.309 375.668 481.355 375.668 482.895V488.754C375.668 489.16 375.676 489.652 375.691 490.23C375.715 490.668 375.781 490.965 375.891 491.121C376 491.277 376.164 491.406 376.383 491.508V492H372.75C372.648 491.742 372.578 491.5 372.539 491.273C372.5 491.047 372.469 490.789 372.445 490.5C371.984 491 371.453 491.426 370.852 491.777C370.133 492.191 369.32 492.398 368.414 492.398C367.258 492.398 366.301 492.07 365.543 491.414C364.793 490.75 364.418 489.812 364.418 488.602C364.418 487.031 365.023 485.895 366.234 485.191C366.898 484.809 367.875 484.535 369.164 484.371L370.301 484.23ZM385.723 478.922C387.043 478.922 388.121 479.27 388.957 479.965C389.801 480.652 390.223 481.797 390.223 483.398V492H386.801V484.23C386.801 483.559 386.711 483.043 386.531 482.684C386.203 482.027 385.578 481.699 384.656 481.699C383.523 481.699 382.746 482.18 382.324 483.141C382.105 483.648 381.996 484.297 381.996 485.086V492H378.668V479.25H381.891V481.113C382.32 480.457 382.727 479.984 383.109 479.695C383.797 479.18 384.668 478.922 385.723 478.922ZM407.039 485.789C406.828 485.922 406.613 486.031 406.395 486.117C406.184 486.195 405.891 486.27 405.516 486.34L404.766 486.48C404.062 486.605 403.559 486.758 403.254 486.938C402.738 487.242 402.48 487.715 402.48 488.355C402.48 488.926 402.637 489.34 402.949 489.598C403.27 489.848 403.656 489.973 404.109 489.973C404.828 489.973 405.488 489.762 406.09 489.34C406.699 488.918 407.016 488.148 407.039 487.031V485.789ZM405.012 484.23C405.629 484.152 406.07 484.055 406.336 483.938C406.812 483.734 407.051 483.418 407.051 482.988C407.051 482.465 406.867 482.105 406.5 481.91C406.141 481.707 405.609 481.605 404.906 481.605C404.117 481.605 403.559 481.801 403.23 482.191C402.996 482.48 402.84 482.871 402.762 483.363H399.539C399.609 482.246 399.922 481.328 400.477 480.609C401.359 479.484 402.875 478.922 405.023 478.922C406.422 478.922 407.664 479.199 408.75 479.754C409.836 480.309 410.379 481.355 410.379 482.895V488.754C410.379 489.16 410.387 489.652 410.402 490.23C410.426 490.668 410.492 490.965 410.602 491.121C410.711 491.277 410.875 491.406 411.094 491.508V492H407.461C407.359 491.742 407.289 491.5 407.25 491.273C407.211 491.047 407.18 490.789 407.156 490.5C406.695 491 406.164 491.426 405.562 491.777C404.844 492.191 404.031 492.398 403.125 492.398C401.969 492.398 401.012 492.07 400.254 491.414C399.504 490.75 399.129 489.812 399.129 488.602C399.129 487.031 399.734 485.895 400.945 485.191C401.609 484.809 402.586 484.535 403.875 484.371L405.012 484.23ZM416.684 479.227V486.926C416.684 487.652 416.77 488.199 416.941 488.566C417.246 489.215 417.844 489.539 418.734 489.539C419.875 489.539 420.656 489.078 421.078 488.156C421.297 487.656 421.406 486.996 421.406 486.176V479.227H424.793V492H421.547V490.195C421.516 490.234 421.438 490.352 421.312 490.547C421.188 490.742 421.039 490.914 420.867 491.062C420.344 491.531 419.836 491.852 419.344 492.023C418.859 492.195 418.289 492.281 417.633 492.281C415.742 492.281 414.469 491.602 413.812 490.242C413.445 489.492 413.262 488.387 413.262 486.926V479.227H416.684ZM432.738 478.922C433.512 478.922 434.199 479.094 434.801 479.438C435.402 479.773 435.891 480.242 436.266 480.844V474.75H439.652V492H436.406V490.23C435.93 490.988 435.387 491.539 434.777 491.883C434.168 492.227 433.41 492.398 432.504 492.398C431.012 492.398 429.754 491.797 428.73 490.594C427.715 489.383 427.207 487.832 427.207 485.941C427.207 483.762 427.707 482.047 428.707 480.797C429.715 479.547 431.059 478.922 432.738 478.922ZM433.465 489.586C434.41 489.586 435.129 489.234 435.621 488.531C436.113 487.828 436.359 486.918 436.359 485.801C436.359 484.238 435.965 483.121 435.176 482.449C434.691 482.043 434.129 481.84 433.488 481.84C432.512 481.84 431.793 482.211 431.332 482.953C430.879 483.688 430.652 484.602 430.652 485.695C430.652 486.875 430.883 487.82 431.344 488.531C431.812 489.234 432.52 489.586 433.465 489.586ZM446.133 477.703H442.746V474.621H446.133V477.703ZM442.746 479.227H446.133V492H442.746V479.227ZM454.418 481.641C453.645 481.641 453.043 481.883 452.613 482.367C452.191 482.852 451.926 483.508 451.816 484.336H457.008C456.953 483.453 456.684 482.785 456.199 482.332C455.723 481.871 455.129 481.641 454.418 481.641ZM454.418 478.887C455.48 478.887 456.438 479.086 457.289 479.484C458.141 479.883 458.844 480.512 459.398 481.371C459.898 482.129 460.223 483.008 460.371 484.008C460.457 484.594 460.492 485.438 460.477 486.539H451.734C451.781 487.82 452.184 488.719 452.941 489.234C453.402 489.555 453.957 489.715 454.605 489.715C455.293 489.715 455.852 489.52 456.281 489.129C456.516 488.918 456.723 488.625 456.902 488.25H460.312C460.227 489.008 459.832 489.777 459.129 490.559C458.035 491.801 456.504 492.422 454.535 492.422C452.91 492.422 451.477 491.898 450.234 490.852C448.992 489.805 448.371 488.102 448.371 485.742C448.371 483.531 448.93 481.836 450.047 480.656C451.172 479.477 452.629 478.887 454.418 478.887ZM469.816 478.922C471.137 478.922 472.215 479.27 473.051 479.965C473.895 480.652 474.316 481.797 474.316 483.398V492H470.895V484.23C470.895 483.559 470.805 483.043 470.625 482.684C470.297 482.027 469.672 481.699 468.75 481.699C467.617 481.699 466.84 482.18 466.418 483.141C466.199 483.648 466.09 484.297 466.09 485.086V492H462.762V479.25H465.984V481.113C466.414 480.457 466.82 479.984 467.203 479.695C467.891 479.18 468.762 478.922 469.816 478.922ZM485.039 483.809C484.977 483.332 484.816 482.902 484.559 482.52C484.184 482.004 483.602 481.746 482.812 481.746C481.688 481.746 480.918 482.305 480.504 483.422C480.285 484.016 480.176 484.805 480.176 485.789C480.176 486.727 480.285 487.48 480.504 488.051C480.902 489.113 481.652 489.645 482.754 489.645C483.535 489.645 484.09 489.434 484.418 489.012C484.746 488.59 484.945 488.043 485.016 487.371H488.426C488.348 488.387 487.98 489.348 487.324 490.254C486.277 491.715 484.727 492.445 482.672 492.445C480.617 492.445 479.105 491.836 478.137 490.617C477.168 489.398 476.684 487.816 476.684 485.871C476.684 483.676 477.219 481.969 478.289 480.75C479.359 479.531 480.836 478.922 482.719 478.922C484.32 478.922 485.629 479.281 486.645 480C487.668 480.719 488.273 481.988 488.461 483.809H485.039ZM495.809 481.641C495.035 481.641 494.434 481.883 494.004 482.367C493.582 482.852 493.316 483.508 493.207 484.336H498.398C498.344 483.453 498.074 482.785 497.59 482.332C497.113 481.871 496.52 481.641 495.809 481.641ZM495.809 478.887C496.871 478.887 497.828 479.086 498.68 479.484C499.531 479.883 500.234 480.512 500.789 481.371C501.289 482.129 501.613 483.008 501.762 484.008C501.848 484.594 501.883 485.438 501.867 486.539H493.125C493.172 487.82 493.574 488.719 494.332 489.234C494.793 489.555 495.348 489.715 495.996 489.715C496.684 489.715 497.242 489.52 497.672 489.129C497.906 488.918 498.113 488.625 498.293 488.25H501.703C501.617 489.008 501.223 489.777 500.52 490.559C499.426 491.801 497.895 492.422 495.926 492.422C494.301 492.422 492.867 491.898 491.625 490.852C490.383 489.805 489.762 488.102 489.762 485.742C489.762 483.531 490.32 481.836 491.438 480.656C492.562 479.477 494.02 478.887 495.809 478.887Z"
    fill="black"
  />
  <path
    d="M677.332 477.727V489H680.66C682.363 489 683.551 488.16 684.223 486.48C684.59 485.559 684.773 484.461 684.773 483.188C684.773 481.43 684.496 480.082 683.941 479.145C683.395 478.199 682.301 477.727 680.66 477.727H677.332ZM681.27 474.727C682.34 474.742 683.23 474.867 683.941 475.102C685.152 475.5 686.133 476.23 686.883 477.293C687.484 478.152 687.895 479.082 688.113 480.082C688.332 481.082 688.441 482.035 688.441 482.941C688.441 485.238 687.98 487.184 687.059 488.777C685.809 490.926 683.879 492 681.27 492H673.828V474.727H681.27ZM696.633 489.645C697.609 489.645 698.359 489.297 698.883 488.602C699.406 487.906 699.668 486.918 699.668 485.637C699.668 484.355 699.406 483.371 698.883 482.684C698.359 481.988 697.609 481.641 696.633 481.641C695.656 481.641 694.902 481.988 694.371 482.684C693.848 483.371 693.586 484.355 693.586 485.637C693.586 486.918 693.848 487.906 694.371 488.602C694.902 489.297 695.656 489.645 696.633 489.645ZM703.172 485.637C703.172 487.512 702.633 489.117 701.555 490.453C700.477 491.781 698.84 492.445 696.645 492.445C694.449 492.445 692.812 491.781 691.734 490.453C690.656 489.117 690.117 487.512 690.117 485.637C690.117 483.793 690.656 482.195 691.734 480.844C692.812 479.492 694.449 478.816 696.645 478.816C698.84 478.816 700.477 479.492 701.555 480.844C702.633 482.195 703.172 483.793 703.172 485.637ZM718.277 479.227H721.664L723.609 488.426L725.602 479.227H729.082L725.379 492H721.945L719.941 482.695L717.914 492H714.445L710.859 479.227H714.445L716.438 488.391L718.277 479.227ZM737.977 478.898C738.766 478.898 739.48 479.035 740.121 479.309C740.77 479.582 741.301 480 741.715 480.562C742.066 481.039 742.281 481.531 742.359 482.039C742.438 482.539 742.477 483.359 742.477 484.5V492H739.066V484.23C739.066 483.543 738.949 482.988 738.715 482.566C738.41 481.973 737.832 481.676 736.98 481.676C736.098 481.676 735.426 481.973 734.965 482.566C734.512 483.152 734.285 483.992 734.285 485.086V492H730.957V474.785H734.285V480.891C734.77 480.148 735.328 479.633 735.961 479.344C736.602 479.047 737.273 478.898 737.977 478.898ZM752.648 485.789C752.438 485.922 752.223 486.031 752.004 486.117C751.793 486.195 751.5 486.27 751.125 486.34L750.375 486.48C749.672 486.605 749.168 486.758 748.863 486.938C748.348 487.242 748.09 487.715 748.09 488.355C748.09 488.926 748.246 489.34 748.559 489.598C748.879 489.848 749.266 489.973 749.719 489.973C750.438 489.973 751.098 489.762 751.699 489.34C752.309 488.918 752.625 488.148 752.648 487.031V485.789ZM750.621 484.23C751.238 484.152 751.68 484.055 751.945 483.938C752.422 483.734 752.66 483.418 752.66 482.988C752.66 482.465 752.477 482.105 752.109 481.91C751.75 481.707 751.219 481.605 750.516 481.605C749.727 481.605 749.168 481.801 748.84 482.191C748.605 482.48 748.449 482.871 748.371 483.363H745.148C745.219 482.246 745.531 481.328 746.086 480.609C746.969 479.484 748.484 478.922 750.633 478.922C752.031 478.922 753.273 479.199 754.359 479.754C755.445 480.309 755.988 481.355 755.988 482.895V488.754C755.988 489.16 755.996 489.652 756.012 490.23C756.035 490.668 756.102 490.965 756.211 491.121C756.32 491.277 756.484 491.406 756.703 491.508V492H753.07C752.969 491.742 752.898 491.5 752.859 491.273C752.82 491.047 752.789 490.789 752.766 490.5C752.305 491 751.773 491.426 751.172 491.777C750.453 492.191 749.641 492.398 748.734 492.398C747.578 492.398 746.621 492.07 745.863 491.414C745.113 490.75 744.738 489.812 744.738 488.602C744.738 487.031 745.344 485.895 746.555 485.191C747.219 484.809 748.195 484.535 749.484 484.371L750.621 484.23ZM757.652 481.723V479.344H759.434V475.781H762.738V479.344H764.812V481.723H762.738V488.473C762.738 488.996 762.805 489.324 762.938 489.457C763.07 489.582 763.477 489.645 764.156 489.645C764.258 489.645 764.363 489.645 764.473 489.645C764.59 489.637 764.703 489.629 764.812 489.621V492.117L763.23 492.176C761.652 492.23 760.574 491.957 759.996 491.355C759.621 490.973 759.434 490.383 759.434 489.586V481.723H757.652ZM774.152 494.449L774.574 494.473C774.902 494.488 775.215 494.477 775.512 494.438C775.809 494.398 776.059 494.309 776.262 494.168C776.457 494.035 776.637 493.758 776.801 493.336C776.973 492.914 777.043 492.656 777.012 492.562L772.324 479.227H776.039L778.828 488.648L781.465 479.227H785.016L780.633 491.789C779.789 494.211 779.121 495.711 778.629 496.289C778.137 496.875 777.152 497.168 775.676 497.168C775.379 497.168 775.141 497.164 774.961 497.156C774.781 497.156 774.512 497.145 774.152 497.121V494.449ZM792.727 489.645C793.703 489.645 794.453 489.297 794.977 488.602C795.5 487.906 795.762 486.918 795.762 485.637C795.762 484.355 795.5 483.371 794.977 482.684C794.453 481.988 793.703 481.641 792.727 481.641C791.75 481.641 790.996 481.988 790.465 482.684C789.941 483.371 789.68 484.355 789.68 485.637C789.68 486.918 789.941 487.906 790.465 488.602C790.996 489.297 791.75 489.645 792.727 489.645ZM799.266 485.637C799.266 487.512 798.727 489.117 797.648 490.453C796.57 491.781 794.934 492.445 792.738 492.445C790.543 492.445 788.906 491.781 787.828 490.453C786.75 489.117 786.211 487.512 786.211 485.637C786.211 483.793 786.75 482.195 787.828 480.844C788.906 479.492 790.543 478.816 792.738 478.816C794.934 478.816 796.57 479.492 797.648 480.844C798.727 482.195 799.266 483.793 799.266 485.637ZM804.996 479.227V486.926C804.996 487.652 805.082 488.199 805.254 488.566C805.559 489.215 806.156 489.539 807.047 489.539C808.188 489.539 808.969 489.078 809.391 488.156C809.609 487.656 809.719 486.996 809.719 486.176V479.227H813.105V492H809.859V490.195C809.828 490.234 809.75 490.352 809.625 490.547C809.5 490.742 809.352 490.914 809.18 491.062C808.656 491.531 808.148 491.852 807.656 492.023C807.172 492.195 806.602 492.281 805.945 492.281C804.055 492.281 802.781 491.602 802.125 490.242C801.758 489.492 801.574 488.387 801.574 486.926V479.227H804.996ZM826.43 492H823.09V474.727H826.43V492ZM835.43 489.645C836.406 489.645 837.156 489.297 837.68 488.602C838.203 487.906 838.465 486.918 838.465 485.637C838.465 484.355 838.203 483.371 837.68 482.684C837.156 481.988 836.406 481.641 835.43 481.641C834.453 481.641 833.699 481.988 833.168 482.684C832.645 483.371 832.383 484.355 832.383 485.637C832.383 486.918 832.645 487.906 833.168 488.602C833.699 489.297 834.453 489.645 835.43 489.645ZM841.969 485.637C841.969 487.512 841.43 489.117 840.352 490.453C839.273 491.781 837.637 492.445 835.441 492.445C833.246 492.445 831.609 491.781 830.531 490.453C829.453 489.117 828.914 487.512 828.914 485.637C828.914 483.793 829.453 482.195 830.531 480.844C831.609 479.492 833.246 478.816 835.441 478.816C837.637 478.816 839.273 479.492 840.352 480.844C841.43 482.195 841.969 483.793 841.969 485.637ZM852.246 479.227H855.832L851.227 492H847.699L843.117 479.227H846.867L849.527 488.648L852.246 479.227ZM862.77 481.641C861.996 481.641 861.395 481.883 860.965 482.367C860.543 482.852 860.277 483.508 860.168 484.336H865.359C865.305 483.453 865.035 482.785 864.551 482.332C864.074 481.871 863.48 481.641 862.77 481.641ZM862.77 478.887C863.832 478.887 864.789 479.086 865.641 479.484C866.492 479.883 867.195 480.512 867.75 481.371C868.25 482.129 868.574 483.008 868.723 484.008C868.809 484.594 868.844 485.438 868.828 486.539H860.086C860.133 487.82 860.535 488.719 861.293 489.234C861.754 489.555 862.309 489.715 862.957 489.715C863.645 489.715 864.203 489.52 864.633 489.129C864.867 488.918 865.074 488.625 865.254 488.25H868.664C868.578 489.008 868.184 489.777 867.48 490.559C866.387 491.801 864.855 492.422 862.887 492.422C861.262 492.422 859.828 491.898 858.586 490.852C857.344 489.805 856.723 488.102 856.723 485.742C856.723 483.531 857.281 481.836 858.398 480.656C859.523 479.477 860.98 478.887 862.77 478.887Z"
    fill="black"
  />
  <path
    d="M1095.1 114.316V123H1088.93V97.4062H1099.15C1101.1 97.4062 1102.83 97.7695 1104.33 98.4961C1105.84 99.2109 1107.01 100.236 1107.83 101.572C1108.66 102.896 1109.08 104.402 1109.08 106.09C1109.08 108.586 1108.18 110.584 1106.39 112.084C1104.61 113.572 1102.16 114.316 1099.04 114.316H1095.1ZM1095.1 109.553H1099.15C1100.34 109.553 1101.25 109.254 1101.87 108.656C1102.5 108.059 1102.82 107.215 1102.82 106.125C1102.82 104.93 1102.5 103.975 1101.85 103.26C1101.21 102.545 1100.33 102.182 1099.22 102.17H1095.1V109.553ZM1122.61 123C1122.4 122.613 1122.21 122.045 1122.05 121.295C1120.96 122.666 1119.44 123.352 1117.48 123.352C1115.69 123.352 1114.16 122.812 1112.91 121.734C1111.66 120.645 1111.03 119.279 1111.03 117.639C1111.03 115.576 1111.79 114.018 1113.31 112.963C1114.84 111.908 1117.05 111.381 1119.96 111.381H1121.79V110.379C1121.79 108.633 1121.03 107.76 1119.52 107.76C1118.11 107.76 1117.41 108.451 1117.41 109.834H1111.49C1111.49 107.994 1112.27 106.5 1113.82 105.352C1115.39 104.203 1117.39 103.629 1119.82 103.629C1122.24 103.629 1124.16 104.221 1125.57 105.404C1126.97 106.588 1127.69 108.211 1127.73 110.273V118.693C1127.75 120.439 1128.02 121.775 1128.54 122.701V123H1122.61ZM1118.9 119.133C1119.64 119.133 1120.25 118.975 1120.73 118.658C1121.22 118.342 1121.58 117.984 1121.79 117.586V114.545H1120.06C1118 114.545 1116.97 115.471 1116.97 117.322C1116.97 117.861 1117.15 118.301 1117.52 118.641C1117.88 118.969 1118.34 119.133 1118.9 119.133ZM1138.35 114.703L1141.51 103.98H1147.86L1140.1 126.182L1139.77 126.99C1138.67 129.451 1136.72 130.682 1133.93 130.682C1133.16 130.682 1132.35 130.564 1131.49 130.33V126.094H1132.26C1133.1 126.094 1133.73 125.971 1134.16 125.725C1134.61 125.49 1134.94 125.062 1135.15 124.441L1135.62 123.176L1129.01 103.98H1135.34L1138.35 114.703ZM1158.65 123V97.4062H1166.89C1169.15 97.4062 1171.19 97.9219 1172.99 98.9531C1174.8 99.9727 1176.2 101.42 1177.21 103.295C1178.23 105.158 1178.75 107.25 1178.76 109.57V110.748C1178.76 113.092 1178.26 115.195 1177.26 117.059C1176.28 118.91 1174.88 120.363 1173.08 121.418C1171.29 122.461 1169.28 122.988 1167.07 123H1158.65ZM1164.82 102.17V118.254H1166.96C1168.73 118.254 1170.09 117.627 1171.04 116.373C1171.99 115.107 1172.46 113.232 1172.46 110.748V109.641C1172.46 107.168 1171.99 105.305 1171.04 104.051C1170.09 102.797 1168.71 102.17 1166.89 102.17H1164.82ZM1192.36 123C1192.15 122.613 1191.96 122.045 1191.8 121.295C1190.71 122.666 1189.19 123.352 1187.23 123.352C1185.44 123.352 1183.91 122.812 1182.66 121.734C1181.41 120.645 1180.78 119.279 1180.78 117.639C1180.78 115.576 1181.54 114.018 1183.06 112.963C1184.59 111.908 1186.8 111.381 1189.71 111.381H1191.54V110.379C1191.54 108.633 1190.78 107.76 1189.27 107.76C1187.86 107.76 1187.16 108.451 1187.16 109.834H1181.24C1181.24 107.994 1182.02 106.5 1183.57 105.352C1185.14 104.203 1187.14 103.629 1189.57 103.629C1191.99 103.629 1193.91 104.221 1195.32 105.404C1196.72 106.588 1197.44 108.211 1197.48 110.273V118.693C1197.5 120.439 1197.77 121.775 1198.29 122.701V123H1192.36ZM1188.65 119.133C1189.39 119.133 1190 118.975 1190.48 118.658C1190.97 118.342 1191.33 117.984 1191.54 117.586V114.545H1189.81C1187.75 114.545 1186.72 115.471 1186.72 117.322C1186.72 117.861 1186.9 118.301 1187.27 118.641C1187.63 118.969 1188.09 119.133 1188.65 119.133ZM1208.1 114.703L1211.26 103.98H1217.61L1209.85 126.182L1209.52 126.99C1208.42 129.451 1206.47 130.682 1203.68 130.682C1202.91 130.682 1202.1 130.564 1201.24 130.33V126.094H1202.01C1202.85 126.094 1203.48 125.971 1203.91 125.725C1204.36 125.49 1204.69 125.062 1204.9 124.441L1205.37 123.176L1198.76 103.98H1205.09L1208.1 114.703Z"
    fill="#252A2E"
  />
</svg>
